<svg width="163" height="185" viewBox="0 0 163 185" fill="none" xmlns="http://www.w3.org/2000/svg">
<rect width="14" height="14" fill="#C8BEB5"/>
<rect x="93.0402" width="14" height="14" fill="#C8BEB5"/>
<rect x="111.648" width="14" height="14" fill="#C8BEB5"/>
<rect x="130.256" width="14" height="14" fill="#C8BEB5"/>
<rect x="148.864" width="14" height="14" fill="#C8BEB5"/>
<rect x="111.648" y="21" width="14" height="14" fill="#C8BEB5"/>
<rect x="130.256" y="21" width="14" height="14" fill="#C8BEB5"/>
<rect x="148.864" y="21" width="14" height="14" fill="#C8BEB5"/>
<rect x="111.648" y="42" width="14" height="14" fill="#C8BEB5"/>
<rect x="130.256" y="42" width="14" height="14" fill="#C8BEB5"/>
<rect x="148.864" y="42" width="14" height="14" fill="#C8BEB5"/>
<rect x="111.648" y="63" width="14" height="14" fill="#C8BEB5"/>
<rect x="130.256" y="63" width="14" height="14" fill="#C8BEB5"/>
<rect x="148.864" y="63" width="14" height="14" fill="#C8BEB5"/>
<rect x="111.648" y="84" width="14" height="14" fill="#C8BEB5"/>
<rect x="130.256" y="84" width="14" height="14" fill="#C8BEB5"/>
<rect x="148.864" y="84" width="14" height="14" fill="#C8BEB5"/>
<rect x="111.648" y="105.298" width="14" height="14" fill="#C8BEB5"/>
<rect x="130.256" y="105.298" width="14" height="14" fill="#C8BEB5"/>
<rect x="148.864" y="105.298" width="14" height="14" fill="#C8BEB5"/>
<rect x="74.4321" width="14" height="14" fill="#C8BEB5"/>
<rect x="55.8241" width="14" height="14" fill="#C8BEB5"/>
<rect x="37.2161" width="14" height="14" fill="#C8BEB5"/>
<rect x="18.608" width="14" height="14" fill="#C8BEB5"/>
<rect y="21" width="14" height="14" fill="#C8BEB5"/>
<rect x="93.0402" y="21" width="14" height="14" fill="#C8BEB5"/>
<rect x="74.4321" y="21" width="14" height="14" fill="#C8BEB5"/>
<rect x="55.8241" y="21" width="14" height="14" fill="#C8BEB5"/>
<rect x="37.2161" y="21" width="14" height="14" fill="#C8BEB5"/>
<rect x="18.608" y="21" width="14" height="14" fill="#C8BEB5"/>
<rect y="42" width="14" height="14" fill="#C8BEB5"/>
<rect x="93.0402" y="42" width="14" height="14" fill="#C8BEB5"/>
<rect x="74.4321" y="42" width="14" height="14" fill="#C8BEB5"/>
<rect x="55.8241" y="42" width="14" height="14" fill="#C8BEB5"/>
<rect x="37.2161" y="42" width="14" height="14" fill="#C8BEB5"/>
<rect x="18.608" y="42" width="14" height="14" fill="#C8BEB5"/>
<rect y="63" width="14" height="14" fill="#C8BEB5"/>
<rect x="93.0402" y="63" width="14" height="14" fill="#C8BEB5"/>
<rect x="74.4321" y="63" width="14" height="14" fill="#C8BEB5"/>
<rect x="55.8241" y="63" width="14" height="14" fill="#C8BEB5"/>
<rect x="37.2161" y="63" width="14" height="14" fill="#C8BEB5"/>
<rect x="18.608" y="63" width="14" height="14" fill="#C8BEB5"/>
<rect y="84" width="14" height="14" fill="#C8BEB5"/>
<rect x="93.0402" y="84" width="14" height="14" fill="#C8BEB5"/>
<rect x="74.4321" y="84" width="14" height="14" fill="#C8BEB5"/>
<rect x="55.8241" y="84" width="14" height="14" fill="#C8BEB5"/>
<rect x="37.2161" y="84" width="14" height="14" fill="#C8BEB5"/>
<rect x="18.608" y="84" width="14" height="14" fill="#C8BEB5"/>
<rect y="105.298" width="14" height="14" fill="#C8BEB5"/>
<rect x="93.0402" y="105.298" width="14" height="14" fill="#C8BEB5"/>
<rect x="74.4321" y="105.298" width="14" height="14" fill="#C8BEB5"/>
<rect x="55.8241" y="105.298" width="14" height="14" fill="#C8BEB5"/>
<rect x="37.2161" y="105.298" width="14" height="14" fill="#C8BEB5"/>
<rect x="18.608" y="105.298" width="14" height="14" fill="#C8BEB5"/>
<rect x="111.648" y="127" width="14" height="14" fill="#C8BEB5"/>
<rect x="130.256" y="127" width="14" height="14" fill="#C8BEB5"/>
<rect x="148.864" y="127" width="14" height="14" fill="#C8BEB5"/>
<rect x="111.648" y="149" width="14" height="14" fill="#C8BEB5"/>
<rect x="130.256" y="149" width="14" height="14" fill="#C8BEB5"/>
<rect x="148.864" y="149" width="14" height="14" fill="#C8BEB5"/>
<rect x="111.648" y="171" width="14" height="14" fill="#C8BEB5"/>
<rect x="130.256" y="171" width="14" height="14" fill="#C8BEB5"/>
<rect x="148.864" y="171" width="14" height="14" fill="#C8BEB5"/>
<rect y="127" width="14" height="14" fill="#C8BEB5"/>
<rect x="93.0402" y="127" width="14" height="14" fill="#C8BEB5"/>
<rect x="74.4321" y="127" width="14" height="14" fill="#C8BEB5"/>
<rect x="55.8241" y="127" width="14" height="14" fill="#C8BEB5"/>
<rect x="37.2161" y="127" width="14" height="14" fill="#C8BEB5"/>
<rect x="18.608" y="127" width="14" height="14" fill="#C8BEB5"/>
<rect y="149" width="14" height="14" fill="#C8BEB5"/>
<rect x="93.0402" y="149" width="14" height="14" fill="#C8BEB5"/>
<rect x="74.4321" y="149" width="14" height="14" fill="#C8BEB5"/>
<rect x="55.8241" y="149" width="14" height="14" fill="#C8BEB5"/>
<rect x="37.2161" y="149" width="14" height="14" fill="#C8BEB5"/>
<rect x="18.608" y="149" width="14" height="14" fill="#C8BEB5"/>
<rect y="171" width="14" height="14" fill="#C8BEB5"/>
<rect x="93.0402" y="171" width="14" height="14" fill="#C8BEB5"/>
<rect x="74.4321" y="171" width="14" height="14" fill="#C8BEB5"/>
<rect x="55.8241" y="171" width="14" height="14" fill="#C8BEB5"/>
<rect x="37.2161" y="171" width="14" height="14" fill="#C8BEB5"/>
<rect x="18.608" y="171" width="14" height="14" fill="#C8BEB5"/>
</svg>
